<?xml version="1.0" encoding="utf-8"?>
<!-- Generator: Adobe Illustrator 23.0.3, SVG Export Plug-In . SVG Version: 6.00 Build 0)  -->
<svg version="1.0" id="Layer_1" xmlns="http://www.w3.org/2000/svg" xmlns:xlink="http://www.w3.org/1999/xlink" x="0px" y="0px"
	 viewBox="0 0 461 326.2" style="enable-background:new 0 0 461 326.2;" xml:space="preserve">
<style type="text/css">
	.st0{fill:#FFFFFF;}
	.st1{fill:#F61C0D;}
</style>
<g>
	<g id="XMLID_1_">
		<g>
			<path class="st0" d="M300.6,160.6c3.8,1.9,3.7,7.3-0.1,9.1l-126.1,60.1c-3.4,1.6-7.2-0.8-7.2-4.6v-124c0-3.8,4-6.2,7.3-4.5
				L300.6,160.6z"/>
			<path class="st1" d="M460.9,95.7v134.7c0,52.8-42.8,95.7-95.7,95.7H95.7C42.9,326.1,0,283.3,0,230.4V95.7C0,42.9,42.9,0,95.7,0
				h269.6C418.1,0,461,42.9,460.9,95.7z M300.5,169.7c3.8-1.8,3.9-7.2,0.1-9.1L174.5,96.7c-3.3-1.7-7.3,0.7-7.3,4.5v124
				c0,3.8,3.8,6.2,7.2,4.6L300.5,169.7z"/>
		</g>
		<g>
		</g>
	</g>
</g>
</svg>
